<svg xmlns="http://www.w3.org/2000/svg" viewBox="0 0 1920 1080">
  <g fill="#DEF0FF">
	<path class="st2" d="M1906.05,177.84c-65.38,0-120.9,42.21-140.8,100.87c-0.38-0.01-0.76-0.03-1.14-0.03
		c-20.19,0-38.26,9.1-50.33,23.42c-12.07-14.65-30.36-23.99-50.82-23.99c-13.34,0-25.75,3.98-36.12,10.8
		c-21.18-12.35-45.7-19.61-71.87-20.11c-13.44-53.11-61.55-92.42-118.84-92.42c-34.39,0-65.46,14.17-87.73,36.98
		c-8.31-3.07-17.28-4.76-26.66-4.76c-15.57,0-30.05,4.65-42.16,12.61c-18.09-10.52-39.1-16.55-61.53-16.55
		c-39.5,0-74.63,18.7-97.04,47.72c-3.9-2.2-8.4-3.45-13.2-3.45c-12.13,0-22.39,8.01-25.77,19.03c-3.27-0.26-6.57-0.4-9.9-0.4
		c-43.18,0-81.14,22.33-102.98,56.07c-8.97-2.57-18.43-3.98-28.23-3.98c-22.81,0-43.87,7.47-60.88,20.09
		c-16.28-7.99-34.59-12.49-53.95-12.49c-39.95,0-75.43,19.11-97.81,48.69c-20.92-16.61-47.38-26.54-76.17-26.54
		c-67.7,0-122.58,54.88-122.58,122.58s54.88,122.58,122.58,122.58c39.95,0,75.43-19.11,97.81-48.69
		c20.92,16.61,47.38,26.54,76.17,26.54c40.3,0,76.05-19.45,98.4-49.47c5.35,0.87,10.84,1.33,16.44,1.33
		c27.15,0,51.8-10.59,70.12-27.84c17.99,10.36,38.85,16.29,61.09,16.29c48.19,0,89.89-27.82,109.91-68.27
		c11.39,3.49,23.48,5.38,36.01,5.38c53.83,0,99.55-34.69,116.03-82.94c16.13,24.19,40.63,42.31,69.37,50.24c0,0.09,0,0.18,0,0.27
		c0,82.09,66.55,148.64,148.64,148.64c9.94,0,19.64-0.98,29.03-2.84c26.43,41.17,72.62,68.45,125.17,68.45
		c82.09,0,148.64-66.55,148.64-148.64c0-5.85-0.35-11.62-1.01-17.3c16.22,6.07,33.78,9.4,52.12,9.4c4.71,0,9.36-0.23,13.95-0.66
		V178.5C1915.41,178.07,1910.76,177.84,1906.05,177.84z"/>
	<path class="st2" d="M312.78,328.58c-20.53,0-39.68,5.86-55.9,15.98c-11.61-18.19-31.96-30.27-55.14-30.27
		c-0.73,0-1.45,0.03-2.17,0.05c-11.82-53.93-59.87-94.31-117.35-94.31c-31.81,0-60.74,12.37-82.23,32.56v175.18
		c21.49,20.19,50.42,32.56,82.23,32.56c30.18,0,57.75-11.13,78.85-29.5c11.16,8.88,25.29,14.21,40.66,14.21
		c1.97,0,3.92-0.1,5.84-0.27c5.26,53.46,50.35,95.23,105.19,95.23c58.38,0,105.71-47.33,105.71-105.71
		C418.49,375.91,371.16,328.58,312.78,328.58z"/>
</g>
</svg>