<svg xmlns="http://www.w3.org/2000/svg" fill="#FFFFFF" viewBox="0 0 1920 1080">
  <g>
    <path  class="st1" d="M1919.87,329.82c-22.58,2.12-41.23,17.77-47.75,38.76c-1.82-0.29-3.69-0.44-5.59-0.44
	c-8.69,0-16.66,3.09-22.88,8.22c-9.94-9.42-23.36-15.22-38.14-15.22c-20.66,0-38.68,11.31-48.22,28.06
	c-10.57-7.41-23.44-11.77-37.33-11.77c-35.97,0-65.13,29.16-65.13,65.13s29.16,65.13,65.13,65.13c27.63,0,51.22-17.21,60.69-41.49
	c7.48,3.76,15.92,5.89,24.86,5.89c22.84,0,42.45-13.81,50.96-33.53c3.19,0.93,6.57,1.44,10.06,1.44c9.92,0,18.89-4.02,25.4-10.51
	c7.94,5.94,17.53,9.79,27.95,10.77V329.82H1919.87z"/>
<path class="st1" d="M-0.09,586.18c73.74,0,133.51-59.78,133.51-133.51S73.65,319.15-0.09,319.15V587"/>
<path class="st1" d="M608.64,339.99c-14.71,0-28.68,3.15-41.28,8.79c-9.93-6.42-21.75-10.16-34.45-10.16
	c-7.54,0-14.78,1.32-21.49,3.73c-17.49-14.49-39.94-23.21-64.43-23.21c-46.54,0-85.73,31.48-97.45,74.3
	c-3.59-0.63-7.27-0.98-11.04-0.98c-35.11,0-63.58,28.46-63.58,63.58s28.46,63.58,63.58,63.58c18.2,0,34.6-7.66,46.18-19.91
	c17.17,13.47,38.8,21.5,62.31,21.5c28.8,0,54.78-12.05,73.18-31.37c17.22,31.13,50.38,52.21,88.47,52.21
	c55.8,0,101.04-45.24,101.04-101.04S664.44,339.99,608.64,339.99z"/>
  </g>
</svg>